version = 1
nColumns = 19
nRows = 30
inDegrees = yes
endheader 
time	r_ground_force_vx	r_ground_force_vy	r_ground_force_vz	r_ground_force_px	r_ground_force_py	r_ground_force_pz	l_ground_force_vx	l_ground_force_vy	l_ground_force_vz	l_ground_force_px	l_ground_force_py	l_ground_force_pz	r_ground_torque_x	r_ground_torque_y	r_ground_torque_z	l_ground_torque_x	l_ground_torque_y	l_ground_torque_z	
          0.00000000	        -24.62724413	        680.36542497	        -27.65058658	          0.08720536	          0.00000000	          0.05632748	          0.00000000	          0.00000000	          0.00000000	          0.00000000	          0.00000000	          0.00000000	          0.00000000	          2.81733359	          0.00000000	          0.00000000	          0.00000000	          0.00000000	
          0.00079497	        -24.62724413	        680.36542497	        -27.65058658	          0.08720536	          0.00000000	          0.05632748	          0.00000000	          0.00000000	          0.00000000	          0.00000000	          0.00000000	          0.00000000	          0.00000000	          2.81733359	          0.00000000	          0.00000000	          0.00000000	          0.00000000	
          0.00330677	        -38.21489847	        865.14751667	        -39.56952034	          0.09492713	          0.00000000	          0.05780004	          0.00000000	          0.00000000	          0.00000000	          0.00000000	          0.00000000	          0.00000000	          0.00000000	          5.87006429	          0.00000000	          0.00000000	          0.00000000	          0.00000000	
          0.00512718	        -56.85800226	        995.51813958	        -43.14577821	          0.10003632	          0.00000000	          0.05849365	          0.00000000	          0.00000000	          0.00000000	          0.00000000	          0.00000000	          0.00000000	          0.00000000	          8.81998807	          0.00000000	          0.00000000	          0.00000000	          0.00000000	
          0.00592215	        -67.57139834	       1050.96495206	        -43.99847538	          0.10223668	          0.00000000	          0.05862594	          0.00000000	          0.00000000	          0.00000000	          0.00000000	          0.00000000	          0.00000000	          0.00000000	         10.02066200	          0.00000000	          0.00000000	          0.00000000	          0.00000000	
          0.00843394	        -95.16322247	       1202.22144499	        -42.50968778	          0.10771097	          0.00000000	          0.05844444	          0.00000000	          0.00000000	          0.00000000	          0.00000000	          0.00000000	          0.00000000	          0.00000000	         13.06735444	          0.00000000	          0.00000000	          0.00000000	          0.00000000	
          0.01025435	       -105.32031729	       1285.98369391	        -39.72080809	          0.11044403	          0.00000000	          0.05805117	          0.00000000	          0.00000000	          0.00000000	          0.00000000	          0.00000000	          0.00000000	          0.00000000	         14.43209431	          0.00000000	          0.00000000	          0.00000000	          0.00000000	
          0.01104933	       -109.02817300	       1318.59028922	        -38.64580447	          0.11155953	          0.00000000	          0.05787177	          0.00000000	          0.00000000	          0.00000000	          0.00000000	          0.00000000	          0.00000000	          0.00000000	         14.91402865	          0.00000000	          0.00000000	          0.00000000	          0.00000000	
          0.01356112	       -125.50469304	       1413.44608583	        -35.24783761	          0.11506101	          0.00000000	          0.05729459	          0.00000000	          0.00000000	          0.00000000	          0.00000000	          0.00000000	          0.00000000	          0.00000000	         16.25404980	          0.00000000	          0.00000000	          0.00000000	          0.00000000	
          0.01538153	       -139.70388519	       1475.73528274	        -32.53329709	          0.11745011	          0.00000000	          0.05686415	          0.00000000	          0.00000000	          0.00000000	          0.00000000	          0.00000000	          0.00000000	          0.00000000	         17.06715327	          0.00000000	          0.00000000	          0.00000000	          0.00000000	
          0.01617650	       -145.34757036	       1501.10815630	        -31.27650669	          0.11839959	          0.00000000	          0.05667169	          0.00000000	          0.00000000	          0.00000000	          0.00000000	          0.00000000	          0.00000000	          0.00000000	         17.36379148	          0.00000000	          0.00000000	          0.00000000	          0.00000000	
          0.01868830	       -158.37584082	       1574.58892150	        -28.06617589	          0.12111368	          0.00000000	          0.05607049	          0.00000000	          0.00000000	          0.00000000	          0.00000000	          0.00000000	          0.00000000	          0.00000000	         18.00914284	          0.00000000	          0.00000000	          0.00000000	          0.00000000	
          0.02050871	       -163.92466238	       1621.82522016	        -26.39740911	          0.12287969	          0.00000000	          0.05565762	          0.00000000	          0.00000000	          0.00000000	          0.00000000	          0.00000000	          0.00000000	          0.00000000	         18.25621983	          0.00000000	          0.00000000	          0.00000000	          0.00000000	
          0.02130368	       -165.52698901	       1640.93716901	        -25.81477528	          0.12361526	          0.00000000	          0.05548554	          0.00000000	          0.00000000	          0.00000000	          0.00000000	          0.00000000	          0.00000000	          0.00000000	         18.32032617	          0.00000000	          0.00000000	          0.00000000	          0.00000000	
          0.02381547	       -167.14946106	       1693.34488981	        -24.44857951	          0.12582819	          0.00000000	          0.05497259	          0.00000000	          0.00000000	          0.00000000	          0.00000000	          0.00000000	          0.00000000	          0.00000000	         18.32349510	          0.00000000	          0.00000000	          0.00000000	          0.00000000	
          0.02563588	       -165.89905054	       1723.94079275	        -23.82061816	          0.12737387	          0.00000000	          0.05463118	          0.00000000	          0.00000000	          0.00000000	          0.00000000	          0.00000000	          0.00000000	          0.00000000	         18.17019508	          0.00000000	          0.00000000	          0.00000000	          0.00000000	
          0.02643086	       -164.89804889	       1735.44102290	        -23.63389453	          0.12804490	          0.00000000	          0.05449002	          0.00000000	          0.00000000	          0.00000000	          0.00000000	          0.00000000	          0.00000000	          0.00000000	         18.06962788	          0.00000000	          0.00000000	          0.00000000	          0.00000000	
          0.02894265	       -160.11619700	       1764.05487052	        -23.46121148	          0.13018743	          0.00000000	          0.05407093	          0.00000000	          0.00000000	          0.00000000	          0.00000000	          0.00000000	          0.00000000	          0.00000000	         17.60594457	          0.00000000	          0.00000000	          0.00000000	          0.00000000	
          0.03076306	       -155.73447456	       1778.25947108	        -23.59109058	          0.13177865	          0.00000000	          0.05379137	          0.00000000	          0.00000000	          0.00000000	          0.00000000	          0.00000000	          0.00000000	          0.00000000	         17.16652917	          0.00000000	          0.00000000	          0.00000000	          0.00000000	
          0.03155803	       -153.69841861	       1782.95895288	        -23.66992419	          0.13248636	          0.00000000	          0.05367540	          0.00000000	          0.00000000	          0.00000000	          0.00000000	          0.00000000	          0.00000000	          0.00000000	         16.95732354	          0.00000000	          0.00000000	          0.00000000	          0.00000000	
          0.03406983	       -146.68363237	       1791.89773610	        -23.94106998	          0.13477082	          0.00000000	          0.05333125	          0.00000000	          0.00000000	          0.00000000	          0.00000000	          0.00000000	          0.00000000	          0.00000000	         16.23376182	          0.00000000	          0.00000000	          0.00000000	          0.00000000	
          0.03589024	       -141.32663775	       1793.61981545	        -24.16921124	          0.13647395	          0.00000000	          0.05310185	          0.00000000	          0.00000000	          0.00000000	          0.00000000	          0.00000000	          0.00000000	          0.00000000	         15.66532958	          0.00000000	          0.00000000	          0.00000000	          0.00000000	
          0.03668521	       -138.93304444	       1793.35340001	        -24.27534561	          0.13723048	          0.00000000	          0.05300678	          0.00000000	          0.00000000	          0.00000000	          0.00000000	          0.00000000	          0.00000000	          0.00000000	         15.41016623	          0.00000000	          0.00000000	          0.00000000	          0.00000000	
          0.03919700	       -131.07569126	       1789.11570444	        -24.63903845	          0.13968526	          0.00000000	          0.05272633	          0.00000000	          0.00000000	          0.00000000	          0.00000000	          0.00000000	          0.00000000	          0.00000000	         14.59039637	          0.00000000	          0.00000000	          0.00000000	          0.00000000	
          0.04101741	       -125.29988042	       1783.38528569	        -24.93598610	          0.14152474	          0.00000000	          0.05254104	          0.00000000	          0.00000000	          0.00000000	          0.00000000	          0.00000000	          0.00000000	          0.00000000	         13.99140745	          0.00000000	          0.00000000	          0.00000000	          0.00000000	
          0.04181239	       -122.80115618	       1780.30209733	        -25.07229315	          0.14234252	          0.00000000	          0.05246464	          0.00000000	          0.00000000	          0.00000000	          0.00000000	          0.00000000	          0.00000000	          0.00000000	         13.73057806	          0.00000000	          0.00000000	          0.00000000	          0.00000000	
          0.04432418	       -114.86357703	       1768.12798977	        -25.55386062	          0.14496746	          0.00000000	          0.05224015	          0.00000000	          0.00000000	          0.00000000	          0.00000000	          0.00000000	          0.00000000	          0.00000000	         12.89871180	          0.00000000	          0.00000000	          0.00000000	          0.00000000	
          0.04614459	       -109.11196530	       1757.41994743	        -25.95520504	          0.14690700	          0.00000000	          0.05209324	          0.00000000	          0.00000000	          0.00000000	          0.00000000	          0.00000000	          0.00000000	          0.00000000	         12.29366870	          0.00000000	          0.00000000	          0.00000000	          0.00000000	
          0.04693956	       -106.61771710	       1752.33910181	        -26.13948133	          0.14776239	          0.00000000	          0.05203324	          0.00000000	          0.00000000	          0.00000000	          0.00000000	          0.00000000	          0.00000000	          0.00000000	         12.03060028	          0.00000000	          0.00000000	          0.00000000	          0.00000000	
          0.04945136	        -98.67738363	       1734.65981030	        -26.77065927	          0.15048122	          0.00000000	          0.05185979	          0.00000000	          0.00000000	          0.00000000	          0.00000000	          0.00000000	          0.00000000	          0.00000000	         11.19812479	          0.00000000	          0.00000000	          0.00000000	          0.00000000	
